<svg width="11" height="18" viewBox="0 0 11 18" fill="none" xmlns="http://www.w3.org/2000/svg">
<path d="M0.697672 8.29764L8.39003 0.287559C8.56795 0.102146 8.80545 0 9.05869 0C9.31193 0 9.54943 0.102146 9.72734 0.287559L10.2938 0.87731C10.6625 1.2616 10.6625 1.88618 10.2938 2.26988L3.83437 8.99627L10.301 15.7301C10.4789 15.9155 10.5771 16.1627 10.5771 16.4263C10.5771 16.6901 10.4789 16.9373 10.301 17.1228L9.73451 17.7124C9.55646 17.8979 9.3191 18 9.06586 18C8.81261 18 8.57511 17.8979 8.3972 17.7124L0.697672 9.69504C0.519336 9.50904 0.421384 9.26071 0.421947 8.99671C0.421384 8.73169 0.519336 8.48349 0.697672 8.29764Z" fill="#202968"/>
</svg>
