<svg width="11" height="18" viewBox="0 0 11 18" fill="none" xmlns="http://www.w3.org/2000/svg">
<path d="M10.3023 9.70236L2.60997 17.7124C2.43205 17.8979 2.19455 18 1.94131 18C1.68807 18 1.45057 17.8979 1.27266 17.7124L0.706166 17.1227C0.337548 16.7384 0.337548 16.1138 0.706167 15.7301L7.16563 9.00373L0.699 2.26988C0.521086 2.08447 0.422853 1.8373 0.422853 1.57374C0.422853 1.30989 0.521086 1.06272 0.699001 0.877163L1.26549 0.287558C1.44354 0.102144 1.68091 1.09982e-07 1.93415 1.32121e-07C2.18739 1.5426e-07 2.42489 0.102144 2.6028 0.287558L10.3023 8.30496C10.4807 8.49096 10.5786 8.73929 10.5781 9.00329C10.5786 9.26832 10.4807 9.51651 10.3023 9.70236Z" fill="#202968"/>
</svg>
