<?xml version="1.0" encoding="utf-8"?>
<!-- Generator: Adobe Illustrator 24.0.0, SVG Export Plug-In . SVG Version: 6.00 Build 0)  -->
<svg version="1.1" id="Слой_1" xmlns="http://www.w3.org/2000/svg" xmlns:xlink="http://www.w3.org/1999/xlink" x="0px" y="0px"
	 viewBox="0 0 377.9 600" style="enable-background:new 0 0 377.9 600;" xml:space="preserve">
<style type="text/css">
	.st0{fill:#F8B133;}
	.st1{fill:#1D1D1B;}
	.st2{fill:#D9D9D9;}
	.st3{fill:#B1B1B1;}
	.st4{fill:#F5EAAE;}
	.st5{fill:#FFFFFF;}
	.st6{fill:#FFFFFF;stroke:#B1B1B1;stroke-miterlimit:10;}
	.st7{fill:#5DA58C;}
	.st8{fill:#1D1D1B;stroke:#0C563E;stroke-miterlimit:10;}
	.st9{fill:url(#_x30_2_15_);}
	.st10{fill:url(#_x30_1_15_);}
	.st11{fill:#E84E1B;}
	.st12{fill:#F29100;}
	.st13{fill:#868686;}
</style>
<g id="paw-left">
	<path id="_x30_4_7_" class="st0" d="M122.8,503.7h10.1l-11,81.9c0,0-12.2,14.5-15.9-2.7C119.9,571.7,122.8,503.7,122.8,503.7z"/>
	<path id="_x30_3_9_" class="st0" d="M121.2,586.5c0-6.8,3-12.2,6.7-12.2c3.7,0,6.7,5.5,6.7,12.2s-3,12.2-6.7,12.2
		C124.1,598.8,121.2,593.3,121.2,586.5z"/>
	<path id="_x30_2_14_" class="st0" d="M107.8,587.8c0-6.8,3-12.2,6.7-12.2s6.7,5.5,6.7,12.2c0,6.8-3,12.2-6.7,12.2
		S107.8,594.5,107.8,587.8z"/>
	<path id="_x30_1_14_" class="st0" d="M95.2,584.2c3.2-5.8,8.4-9,11.5-7c3.2,2,3.2,8.3,0,14.1c-3.2,5.8-8.4,9-11.5,7
		C92,596.4,92,590.1,95.2,584.2z"/>
</g>
<g id="tail_1_">
	<path id="_x30_2_13_" class="st1" d="M184.2,421.8c0,0-11.6,2.5,43.8,46.1c77,60.7,125,57.2,125,57.2s-39.8,17.1-112.3-1.4
		c-57-14.5-120-57.1-120-57.1L184.2,421.8z"/>
	<path id="_x30_1_13_" class="st2" d="M189.9,403.3c0,0,34.8,58.4,91.9,83.1s96.1,28.8,96.1,28.8s-25,9-60.7,2.4
		c-24.7-4.5-37.7-13.9-37.7-13.9s5,7,19.8,12.8c-15.7-2.9-27.9-6.1-38.7-9.9c-71.6-25-97.7-66.2-97.7-66.2L189.9,403.3z"/>
</g>
<path id="body" class="st2" d="M210.6,261c-13.9,147.1,2.5,114.9,1.4,173.4c-1.4,73.5-43.9,89.6-58.8,89.8
	c-43.7,0.6-89.1-22.7-102.3-173.5s53-180.5,53-180.5S223.2,128.8,210.6,261z"/>
<g id="hairstyle">
	<path id="_x30_6" class="st3" d="M94.7,175.3c0,0-17.2,0-17.8-32c19.8,31.2,44.3,32.4,63.6,34.3C125.2,177.5,94.7,175.3,94.7,175.3
		z"/>
	<path id="_x30_5" class="st3" d="M108.9,166.6C56,126.7,116,70.2,174.4,35.7C72.8,150.2,154,172.4,154,172.4
		S128.3,173.8,108.9,166.6z"/>
	<path id="_x30_4" class="st3" d="M145.7,173.9C69,97.9,215.4,95.4,222.1,0c10.5,84.3-103.1,89.2-52.7,173.3
		C160.3,174.1,156.1,175.1,145.7,173.9z"/>
	<path id="_x30_3" class="st4" d="M154.8,173.9C78,97.9,215.4,95.4,222.1,0c10.5,84.3-92.1,97.1-41.7,181.2
		C171,177.5,165.3,175.3,154.8,173.9z"/>
	<path id="_x30_2" class="st4" d="M114.8,163.5c-52.9-39.9,1.2-93.2,59.6-127.8c-101.6,114.5-14.5,133.6-14.5,133.6
		S167.8,203.3,114.8,163.5z"/>
	<path id="_x30_1" class="st4" d="M149,183.6c-24.7-11.9-70.2,0-70.2,0l17.8-14.4c0,0-17.2,0-17.8-32c19.8,31.2,44.3,32.4,63.6,34.3
		C145.1,176.4,145.1,178,149,183.6z"/>
</g>
<g id="paw-right">
	<path id="_x30_4_6_" class="st0" d="M184.4,582.8c-3.7,17.2-15.9,2.7-15.9,2.7s-11.8-71.5-11-81.9s10.1,0,10.1,0
		S170.5,571.7,184.4,582.8z"/>
	<path id="_x30_3_8_" class="st0" d="M195.2,598.4c-3.2,2-8.4-1.2-11.5-7c-3.2-5.8-3.2-12.2,0-14.1s8.4,1.2,11.5,7
		S198.4,596.4,195.2,598.4z"/>
	<path id="_x30_2_12_" class="st0" d="M175.9,600c-3.7,0-6.7-5.5-6.7-12.2c0-6.8,3-12.2,6.7-12.2c3.7,0,6.7,5.5,6.7,12.2
		C182.6,594.5,179.6,600,175.9,600z"/>
	<path id="_x30_1_12_" class="st0" d="M162.6,598.8c-3.7,0-6.7-5.5-6.7-12.2s3-12.2,6.7-12.2c3.7,0,6.7,5.5,6.7,12.2
		S166.3,598.8,162.6,598.8z"/>
</g>
<g id="wings">
	<g id="right_1_">
		<path id="_x30_4_5_" class="st3" d="M210.3,425.6c-16.1,10-40,8.9-30.3-6.7c5.5-8.9,4.7-15.2,6.1-32.5c2.6-33.7-4.6-74.3,1.6-73.9
			C195.9,313.2,200.4,400.8,210.3,425.6z"/>
		<path id="_x30_3_7_" class="st3" d="M201.6,411.2c0,0,10.4,8.5,17.7,10.6c7.4,2.1,19.4-0.1,11.6,6.9c-7.7,7.1-24.7-2.3-24.7-2.3
			l-9.9-9.9L201.6,411.2z"/>
		<path id="_x30_2_11_" class="st3" d="M197.1,418.8l5.6,8.9c0,0,8-2.5,12.9,1.7s-2.3,13.3-16.1,9.1c-6.4-1.9-8.9-13-8.9-13
			L197.1,418.8z"/>
		<path id="_x30_1_11_" class="st3" d="M188.8,425.1c0,0,1.3,11.9-16.9,11.9c-8.2,0-16.4-4.9-16.8-7.8c-0.4-2.9,4.6-4.1,13.2-2.9
			c8.6,1.2,19.1-16,19.1-16L188.8,425.1z"/>
	</g>
	<g id="left_1_">
		<path id="_x30_4_4_" class="st3" d="M40.1,438.6c-43.4,0.4-3.6-3.7,0.1-51.2c2.6-33.7,2.8-69.4,9-68.9
			C57.5,319,68.8,438.3,40.1,438.6z"/>
		<path id="_x30_3_6_" class="st3" d="M30.2,437.8c0,0-24.4,13.9-29.7,9.1S28,430,28,430L30.2,437.8z"/>
		<path id="_x30_2_10_" class="st3" d="M40.3,437c0,0-20.9,23.8-29,17.6C3.1,448.5,32.5,437,32.5,437H40.3z"/>
		<path id="_x30_1_10_" class="st3" d="M52.6,421.3c0,0,1.9,14.1,8.9,17.5c7,3.4,17.3,19-7.2,12.4s-6-30-6-30H52.6z"/>
	</g>
</g>
<g id="head">
	<path id="_x30_2_1_" class="st5" d="M204,290.4c-9.9,14-7.7-8.5-30.8,11c-4.4,3.7-6.8,23.7-6.8,36.7c0,0-6.1-49.7-43.3-39.1
		c-21.2,6-47-0.1-60.5-9.7c15.1,0.9,22.1-11.3,22.1-11.3s-6.5,1.3-11.4-5.3c9-8.4,9.9-13.1,9.9-13.2c0,0,0,0,0,0c0,0-5.5,2.5-9-2.2
		c4.4-0.5,7.9-4.5,10.2-8.1c1.6-9.6,4.3-19.7,6.3-29.5c7-34.7,29.9-54.1,64.4-50.8C233.1,176.4,175.1,286.7,204,290.4z"/>
	<path id="_x30_1_1_" class="st4" d="M115.8,221c-1-33.2,0.4-47.1,38.5-47.2c36.2-0.1,40.1,23.8,37.8,64.3
		c-2,36.3-21.5,60.5-37.5,60.6C128.2,298.9,116.8,255.5,115.8,221z"/>
	<g id="eye-right">
		<g id="eyelashes_1_">
			<path id="_x30_3_5_" class="st1" d="M178,181.5l-2.8-2c0,0,10.3,2.8,11.3-6C186.8,183.2,178,181.5,178,181.5z"/>
			<path id="_x30_2_9_" class="st1" d="M181.2,185.5l-2.8-2c0,0,10.3,2.8,11.3-6C190,187.2,181.2,185.5,181.2,185.5z"/>
			<path id="_x30_1_9_" class="st1" d="M183.2,189.9l-2.8-2c0,0,10.3,2.8,11.3-6C192,191.6,183.2,189.9,183.2,189.9z"/>
		</g>
		<path id="_x30_2_8_" class="st1" d="M163,178.8c8.5-3.8,18.8,1.7,22.9,12.3c4.1,10.5,0.6,22.1-7.9,25.9
			c-8.5,3.8-18.8-1.7-22.9-12.3C150.9,194.1,154.5,182.5,163,178.8z"/>
		<path id="_x30_1_8_" class="st6" d="M163.5,181.4c8.5-3.8,18.8,1.7,22.9,12.3c4.1,10.5,0.6,22.1-7.9,25.9
			c-8.5,3.8-18.8-1.7-22.9-12.3C151.4,196.8,154.9,185.2,163.5,181.4z"/>
		<g id="pupil_1_">
			<path id="_x30_4_3_" class="st7" d="M166.5,189.2c5-2.2,11.1,1,13.5,7.2c2.4,6.2,0.3,13.1-4.7,15.3c-5,2.2-11.1-1-13.5-7.2
				C159.4,198.3,161.5,191.4,166.5,189.2z"/>
			<path id="_x30_3_4_" class="st8" d="M168.1,193.3c3.2-1.4,7.1,0.7,8.6,4.6s0.2,8.3-3,9.8c-3.2,1.4-7.1-0.7-8.6-4.6
				C163.6,199.1,164.9,194.7,168.1,193.3z"/>
		</g>
		<g id="light_1_">
			<path id="_x30_2_7_" class="st5" d="M165.6,193c1.4-0.3,2.8,0.7,3.1,2.2c0.3,1.5-0.7,3-2.1,3.3c-1.4,0.3-2.8-0.7-3.1-2.2
				C163.2,194.7,164.1,193.3,165.6,193z"/>
			<path id="_x30_1_7_" class="st5" d="M177.7,204c0.7-0.1,1.3,0.3,1.5,1.1c0.1,0.7-0.3,1.4-1,1.6c-0.7,0.1-1.3-0.3-1.5-1.1
				C176.6,204.8,177,204.1,177.7,204z"/>
		</g>
	</g>
	<g id="blush">
		<radialGradient id="_x30_2_15_" cx="134.6942" cy="231.6205" r="15.2455" gradientUnits="userSpaceOnUse">
			<stop  offset="9.625669e-02" style="stop-color:#E5332A;stop-opacity:0.5"/>
			<stop  offset="1" style="stop-color:#F29100;stop-opacity:0"/>
		</radialGradient>
		<path id="_x30_2_6_" class="st9" d="M151.5,225.4c2.3,6.2-3.3,14-12.6,17.5c-9.3,3.5-18.7,1.2-21-4.9c-2.3-6.2,3.3-14,12.6-17.5
			S149.2,219.2,151.5,225.4z"/>
		<radialGradient id="_x30_1_15_" cx="183.0355" cy="224.267" r="15.2444" gradientUnits="userSpaceOnUse">
			<stop  offset="9.625669e-02" style="stop-color:#E5332A;stop-opacity:0.5"/>
			<stop  offset="1" style="stop-color:#F29100;stop-opacity:0"/>
		</radialGradient>
		<path id="_x30_1_6_" class="st10" d="M200.7,227.3c-1.1,6.5-10,10.4-19.7,8.7c-9.8-1.7-16.7-8.4-15.6-14.9
			c1.1-6.5,10-10.4,19.7-8.7S201.8,220.8,200.7,227.3z"/>
	</g>
	<g id="cheeks">
		<g id="right">
			<path id="_x30_4_2_" class="st11" d="M207.1,230.2c0.7,8.9-2.6,16.1-7.4,16c-4.8-0.1-9.2-7.4-9.8-16.4c-0.7-8.9,2.6-16.1,7.4-16
				C202,213.9,206.4,221.3,207.1,230.2z"/>
			<path id="_x30_3_3_" class="st12" d="M203.6,225.9c0.4,5.8-1.7,10.5-4.8,10.4c-3.1-0.1-6-4.8-6.4-10.7s1.7-10.5,4.8-10.4
				C200.3,215.2,203.1,220,203.6,225.9z"/>
		</g>
		<g id="left">
			<path id="_x30_2_5_" class="st11" d="M127.7,252c-2.9,9.8-11.4,15.8-19.2,13.2s-11.7-12.5-8.9-22.4s11.4-15.8,19.2-13.2
				S130.5,242.2,127.7,252z"/>
			<path id="_x30_1_5_" class="st12" d="M125.3,245.6c-1.9,6.6-7.6,10.5-12.8,8.8c-5.2-1.7-7.8-8.4-5.9-14.9
				c1.9-6.6,7.6-10.5,12.8-8.8C124.5,232.3,127.2,239,125.3,245.6z"/>
		</g>
	</g>
	<g id="nose">
		<path id="nose_1_" class="st13" d="M157.4,212.2c0,0,8.5,8.8,28.7,5.3c-10.3,9.8-21.1,8.9-21.1,8.9l3.7,9.6c0,0-12.9,1.7-17.8-4.2
			C141.8,220.9,157.4,212.2,157.4,212.2z"/>
		<path id="mouth" class="st1" d="M165.3,234.4c-11.1,0-11.1-8.7-11.1-8.7l9.5,0.8C162.6,228.7,164.2,232.9,165.3,234.4z"/>
		<path id="nostril" class="st1" d="M157.9,216c0,0.5-0.4,1-0.9,1s-0.9-0.4-0.9-1c0-0.5,0.4-1,0.9-1S157.9,215.5,157.9,216z"/>
	</g>
	<g id="eye-left">
		<g id="eyelashes">
			<path id="_x30_3_2_" class="st1" d="M113.1,173.4c1.2,10.2,13.1,7,13.1,7l-3.2,2.3C123,182.7,112.7,184.6,113.1,173.4z"/>
			<path id="_x30_2_3_" class="st1" d="M109.4,178c1.2,10.2,13.1,7,13.1,7l-3.2,2.3C119.3,187.3,109,189.3,109.4,178z"/>
			<path id="_x30_1_4_" class="st1" d="M107.1,183.1c1.2,10.2,13.1,7,13.1,7l-3.2,2.3C117,192.4,106.7,194.3,107.1,183.1z"/>
		</g>
		<path id="_x30_2_4_" class="st1" d="M149.5,209.5c-4.8,12.2-16.7,18.6-26.5,14.2c-9.9-4.4-14-17.8-9.2-30s16.7-18.6,26.5-14.2
			S154.3,197.3,149.5,209.5z"/>
		<path id="_x30_1_3_" class="st6" d="M148.9,212.5c-4.8,12.2-16.7,18.6-26.5,14.2s-14-17.8-9.2-30c4.8-12.2,16.7-18.6,26.5-14.2
			S153.7,200.3,148.9,212.5z"/>
		<g id="pupil">
			<path id="_x30_4_1_" class="st7" d="M141.6,209.3c-2.8,7.2-9.8,11-15.7,8.4s-8.2-10.5-5.4-17.7s9.8-11,15.7-8.4
				C142,194.2,144.5,202.1,141.6,209.3z"/>
			<path id="_x30_3_1_" class="st8" d="M137.8,207.6c-1.8,4.6-6.3,7-10,5.3c-3.7-1.6-5.3-6.7-3.5-11.3c1.8-4.6,6.3-7,10-5.3
				C138.1,198,139.6,203,137.8,207.6z"/>
		</g>
		<g id="light">
			<path id="_x30_2_2_" class="st5" d="M131.3,197.9c-0.3,1.8-1.9,2.9-3.6,2.6c-1.7-0.3-2.7-2-2.4-3.8c0.3-1.8,1.9-2.9,3.6-2.6
				C130.5,194.5,131.6,196.2,131.3,197.9z"/>
			<path id="_x30_1_2_" class="st5" d="M132.9,214.1c-0.1,0.8-0.9,1.4-1.7,1.2c-0.8-0.2-1.3-1-1.2-1.8c0.1-0.8,0.9-1.4,1.7-1.2
				C132.6,212.4,133.1,213.2,132.9,214.1z"/>
		</g>
	</g>
</g>
</svg>
