<?xml version="1.0" encoding="utf-8"?>
<!-- Generator: Adobe Illustrator 24.0.0, SVG Export Plug-In . SVG Version: 6.00 Build 0)  -->
<svg version="1.1" id="Kiwi" xmlns="http://www.w3.org/2000/svg" xmlns:xlink="http://www.w3.org/1999/xlink" x="0px" y="0px"
	 viewBox="0 0 303 445.7" style="enable-background:new 0 0 303 445.7;" xml:space="preserve">
<style type="text/css">
	.st0{fill:#DDDB00;}
	.st1{fill:#FEEA00;}
	.st2{fill:#FFF29B;}
	.st3{fill:#28348A;}
	.st4{fill:#1D1D1B;}
	.st5{fill:#F29100;}
	.st6{fill:#FFA300;}
	.st7{fill:#F8B133;}
	.st8{fill:#0091C4;}
	.st9{fill:#009EE2;}
	.st10{fill:#03B2EF;}
	.st11{fill:#1D70B7;}
	.st12{fill:#FFFFFF;}
	.st13{fill:#1D1E1B;}
	.st14{fill:#347000;}
	.st15{fill:#95C11F;}
	.st16{fill:#00A099;}
	.st17{fill:#A0E578;}
	.st18{fill:#3B8700;}
	.st19{fill:#409800;}
	.st20{fill:#53B80B;}
</style>
<g id="head">
	<path id="_x30_4_3_" class="st0" d="M243.6,97.4c1.9,15.3,20.8,24.1,20.8,24.1l-39.9,17.3l-92.4-30.9c0,0,1.3-4.9,9.3-8.3
		c0.9-0.4-4.2-0.9-4.7-2.2c3.9-0.2,7.8-1.4,9.6-3.3c12-12,20.4-74.2,43.7-87.6s65.4-3,66.1,3.5c0.7,6.5,0,12,0,12
		S241.7,82.1,243.6,97.4z"/>
	<path id="_x30_3_4_" class="st1" d="M253.7,110.1c0,0-9.4-2.2-9.2-0.8c0.2,1.3,5.7,4,5.7,4s-4.5,1.6-9.8,1.1
		c-5.3-0.4-10.4-5.2-10.4-5.2s-4.1,6.3-3.5,3.7s-1.7-2.9-1.7-2.9s0.2,8.7-18.7,5s-35.4-29.9-35.4-29.9s-8.3,4.7-5.7,3.4
		s0.5-11.2,0-9.8c-0.5,1.3-5.1,1.7-5.1,1.7s2.6-2.7,3.3-9.2c0.3-3.4-1.2-7.4-2.7-10.5l1.1-3.2c7-20.7,15.3-43.6,28.5-51.1
		c23.4-13.4,65.4-3,66.1,3.5c0.7,6.5,0,12,0,12s-13.4,66.1-12.4,75.4S253.7,110.1,253.7,110.1z"/>
	<path id="_x30_2_4_" class="st2" d="M196,3.7c23.9-9,59.4,0.3,60.1,6.3c0.7,6.5,0,12,0,12s-2.1,10.7-2.8,14
		C171.8,58,193.9,4.5,196,3.7z"/>
	<path id="_x30_1_4_" class="st2" d="M229.1,48.1c-3.4,12.3-17.5,18.7-28.4,15.7s-13.8-14.7-10.9-26.6c3.1-12.4,15-19.9,25.8-16.9
		C226.5,23.3,232.5,35.8,229.1,48.1z"/>
	<g id="cheek">
		<path id="_x30_3_3_" class="st3" d="M189.9,93.2c-7.1-0.6-3.9-25.8-0.6-33.1c9.2,7.8,21.8,3.3,21.8,3.3S201.2,94.1,189.9,93.2z"/>
		<path id="_x30_2_3_" class="st4" d="M201,92.4c0,2.5-2,4.4-4.4,4.4c-2.5,0-4.4-2-4.4-4.4s2-4.4,4.4-4.4C199,88,201,89.9,201,92.4z
			"/>
		<path id="_x30_1_3_" class="st4" d="M216,105.6c0,2.4-2,4.4-4.4,4.4c-2.4,0-4.4-2-4.4-4.4c0-2.4,2-4.4,4.4-4.4
			C214.1,101.2,216,103.2,216,105.6z"/>
	</g>
	<g id="tripes">
		<path id="_x30_4_2_" class="st4" d="M190.4,35.2c-3.8-3.2-5.2-20.4,5.6-31.3c-2.8,4.1-6.6,18-2.1,24.9
			C191.8,30.5,191.1,33.3,190.4,35.2z"/>
		<path id="_x30_3_2_" class="st4" d="M168.5,39.9c0,0-7.1,33,17.2,40.5c0,1.6-0.1,2.8-0.1,4.3C157.2,76.9,168.5,39.9,168.5,39.9z"
			/>
		<path id="_x30_2_2_" class="st4" d="M186.6,70.1c-23.8-9.8-11.8-44.2-11.8-44.2s-8.3,31,12.6,40.1C187,67.7,186.9,68.8,186.6,70.1
			z"/>
		<path id="_x30_1_2_" class="st4" d="M211.1,63.5C198.8,71,185.6,62,185.7,51c-7.4,0.6-10.3-25.9-0.8-40.4
			c-3,8.6-5.5,36.5,3.9,34.5C189.7,63.1,200.4,66,211.1,63.5z"/>
	</g>
	<g id="beak">
		<path id="_x31_1" class="st5" d="M252,77.2c0,0-8.1,8.7-14.3,7.3c-8.8-2.1-5.9-17-5.9-17L252,77.2z"/>
		<path id="_x31_0" class="st6" d="M250.2,28.9c-4.2-0.5,16.1,2.3,16,26c-0.1,28.3-13.3,36.9-13.3,36.9s-28.1-17-25.2-41.8
			L250.2,28.9z"/>
		<path id="_x30_9" class="st7" d="M250.2,28.9c-4.2-0.5,16.1,2.3,16,26c-0.1,28.3-13.3,36.9-13.3,36.9s-23.6-17-20.6-41.8
			L250.2,28.9z"/>
		<path id="_x30_8" class="st6" d="M263.8,40c2.2,7.9,1.5,15.4-3.4,16.7c-1.2,0.3-2.5,0.3-3.8-0.2c-2.6,6.2-8.4,10.6-15.2,10.6
			c-9.2,0-11.6-6.7-11.6-16.5L263.8,40z"/>
		<g id="nose">
			<path id="_x30_7" class="st8" d="M260.4,51.5c-1.2,0.3-2.5,0.3-3.8-0.2c-2.6,6.2-8.4,10.6-15.2,10.6c-9.2,0-16.6-7.9-16.6-17.8
				c0-9.8,3.8-16.9,12.9-16.9c2.3,0,13.3,7,17.9-4.4c1.3-3.1,5.9,4,8.1,11.9C265.9,42.7,265.3,50.2,260.4,51.5z"/>
			<path id="_x30_6_1_" class="st9" d="M261,48.6c-6.7,0.2-11,9.4-17.1,9.4c-8.3,0-15-7.2-15-16c0-8.8,0.6-14.7,8.8-14.7
				c2,0,13.8,5.9,17.9-4.4c1.2-2.8,6.2,3.5,8.2,10.6C265.8,40.6,265.5,48.5,261,48.6z"/>
			<path id="_x30_5_1_" class="st10" d="M244.8,50.6c-7.7,0-14-5.1-14-11.3c0-6.3,3.2-9.3,10.9-9.3c1.9,0,11.2,3,15.1-4.3
				c1.1-2,4.3,3.1,5.7,8.2C265.6,44.8,250.5,50.6,244.8,50.6z"/>
			<g id="nostrils">
				<g id="right">
					<path id="_x30_4_1_" class="st11" d="M260.6,28.9c0.9,1.6,0.6,3.5-0.6,4.1c-1.2,0.7-2.9-0.1-3.8-1.7c-0.9-1.6-0.6-3.5,0.6-4.1
						C258,26.5,259.7,27.3,260.6,28.9z"/>
					<path id="_x30_3_1_" class="st4" d="M260.1,28.8c0.6,1.1,0.6,1.6,0.5,2c-1.5-1.7-3.3,0.6-4-1c-0.5-1,0-2,0.9-2.3
						C258.4,27.2,259.6,27.8,260.1,28.8z"/>
				</g>
				<g id="left">
					<path id="_x30_2_1_" class="st11" d="M249.7,34c0,1.8-1.5,3.3-3.3,3.3S243,35.8,243,34c0-1.8,1.5-3.3,3.3-3.3
						S249.7,32.1,249.7,34z"/>
					<path id="_x30_1_1_" class="st4" d="M249.3,33.7c0,1.3-0.4,1.7-0.7,2c-0.6-2.2-4.1-1.1-4-2.8c0.1-1.1,1.3-1.8,2.5-1.6
						C248.3,31.5,249.3,32.6,249.3,33.7z"/>
				</g>
			</g>
		</g>
	</g>
	<g id="eye">
		<path id="_x30_6" class="st4" d="M220.2,41c-2,8.8-9.8,14.3-15.6,12.9s-7.2-9.3-5.5-17.8c1.9-8.9,8.4-14.9,14.2-13.5
			C219.2,24,222.3,32.2,220.2,41z"/>
		<path id="_x30_5" class="st1" d="M220.7,39.2c-1.8,7.8-9.4,12.5-15.2,11.1c-5.8-1.3-7.4-8.5-5.9-16c1.6-7.8,8-13,13.8-11.7
			C219.2,24,222.5,31.4,220.7,39.2z"/>
		<path id="protein" class="st12" d="M217.6,38.7c-2.7,4.1-7.8,5.4-11.4,3c-3.6-2.4-4.4-7.6-1.8-11.7s7.8-5.4,11.4-3
			S220.3,34.7,217.6,38.7z"/>
		<g id="pupil">
			<path id="_x30_4" class="st9" d="M214.8,35.7c-1.2,3.2-4.5,4.9-7.4,3.8c-2.9-1.1-4.2-4.6-3-7.7s4.5-4.9,7.4-3.8
				C214.7,29,216.1,32.5,214.8,35.7z"/>
			<path id="_x30_3" class="st4" d="M213.3,35.8c-0.9,2.4-3.4,3.7-5.5,2.8s-3.1-3.4-2.2-5.8c0.9-2.4,3.4-3.7,5.5-2.8
				S214.2,33.4,213.3,35.8z"/>
			<path id="highlight2" class="st12" d="M210.7,31.1c-0.3,0.9-1.4,1.4-2.3,1c-0.9-0.3-1.4-1.4-1-2.3c0.3-0.9,1.4-1.4,2.3-1
				C210.6,29.2,211.1,30.2,210.7,31.1z"/>
			<path id="highlight1" class="st12" d="M207.3,34.3c-0.1,0.4-0.6,0.6-1,0.4s-0.6-0.6-0.4-1c0.1-0.4,0.6-0.6,1-0.4
				C207.3,33.5,207.5,33.9,207.3,34.3z"/>
		</g>
		<g id="eyelid">
			<path id="_x30_2" class="st4" d="M219.1,36.1c-9.9-10-14.7-5.8-15.5-4.6c1.6-5.3,6.3-8.6,10.6-7.3
				C218.5,25.4,220.7,30.8,219.1,36.1z"/>
			<path id="_x30_1" class="st0" d="M219.3,35.5c-10.4-12.9-15.1-6-15.5-4.6c1.6-5.3,6.3-8.6,10.6-7.3
				C218.6,24.9,220.8,30.2,219.3,35.5z"/>
		</g>
	</g>
	<path id="yebrow" class="st13" d="M202.9,17.4c0,0,6.9-11.3,15.9-2.6C209.8,11.6,202.9,17.4,202.9,17.4z"/>
</g>
<g id="wing-left2">
	<path id="_x31_5" class="st4" d="M287.4,170.2c0,22.3-23.5,32.5-35.7,36.6c-45.2,15.3-23.3-18.1-23.3-40.4s10.4-40.4,23.3-40.4
		C262.7,125.9,287.4,166.9,287.4,170.2z"/>
	<path id="_x31_4" class="st14" d="M287.4,170.2c0,22.3-24.2,27.3-35.2,31.5c-40.6,15.3-20.9-18.1-20.9-40.4s9.4-40.4,20.9-40.4
		C259.6,120.8,287.4,166.4,287.4,170.2z"/>
</g>
<g id="tail">
	<path id="_x30_6_3_" class="st4" d="M134.7,230.7c0,0-66.9,186.9-107.2,209.1s103.7-222,103.7-222L134.7,230.7z"/>
	<path id="_x30_5_3_" class="st15" d="M132.5,222.7C87,333.4,23.6,454.7,5.8,445.2c-18.9-10,124-235,124-235S131.3,219,132.5,222.7z
		"/>
	<path id="_x30_4_5_" class="st0" d="M5.8,445.2c-18.9-10,124-235,124-235S38,360.5,5.8,445.2z"/>
	<path id="_x30_3_6_" class="st16" d="M126.6,215.3c0,0-99.8,225.5-123.9,215.3c-24.1-10.2,123.9-227.8,123.9-227.8L126.6,215.3z"/>
	<path id="_x30_2_6_" class="st17" d="M2.7,430.6c-24.1-10.2,123.9-227.8,123.9-227.8S23.8,367.5,2.7,430.6z"/>
	<path id="_x30_1_6_" class="st4" d="M126.5,198.3c0,0-40.5,64.3-59.7,98.4C42.8,339.3-0.1,420.5,5.4,401.4
		c3.9-13.3,25.3-64,53.5-115.1c29.6-53.7,60.8-100.5,60.8-100.5L126.5,198.3z"/>
</g>
<g id="paws">
	<path id="right_1_" class="st5" d="M197.5,292l3.5,4.5c0,0,49.8,4.3,47.4,8.7c-2.4,4.4-45-2.8-45-2.8s-2.7-1.7-18.7,1.4
		c-27.6,5.3-24.7-5.9-24.7-5.9l32.6-1.4V292H197.5z"/>
	<path id="left_1_" class="st7" d="M127.9,292l3.5,6.8c0,0,49.3,6.5,47,13c-2.3,6.5-44.6-4.2-44.6-4.2s-2.7-2.5-18.5,2.1
		c-27.4,7.9-24.5-8.8-24.5-8.8l32.3-2.1V292H127.9z"/>
</g>
<g id="body">
	<path id="shadow" class="st18" d="M199.9,292h-10.2l-11.5-22.4l-37.3,0.4l-8.9,22h-13.9c0,0,6.4-149.9,15.6-179
		c12-37.8,87.1,16,87.1,16s49.5-35.6,46.2,17.9c-2.6,42.7-14.4,48.9-57.1,78.6c-9.7,6.7-2.8,24.1-6.6,40.7
		C201.1,275.1,199.9,292,199.9,292z"/>
	<path id="body_1_" class="st19" d="M195.5,289.6c-1.5,0-21.8-22.2-6.7-24.4c-7.8-0.1-47.9,4.8-47.9,4.8l-8.9,22h-10.8
		c0,0,5.2-29.8,8.4-66.1c1.4-15.7,38-4,47.6-43.6c6.8-27.7,5.1-89.1-43.6-69.3c12-37.8,87.1,16,87.1,16s47.7-35.7,47.8,17.8
		c0.2,61.5-46.7,80.9-65.1,118.4C200.9,265.6,199,289.5,195.5,289.6z"/>
	<path id="breast" class="st20" d="M255.3,119.2c0,0,7.7,0.2,11,12.9c1.4,5.6-4.7,22.5-7.1,23.4c-1.5,0.6-7.1-12.1-7.1-12.1
		s-15.5,25.4-20,26.9c-1.6,0.5,0-12.4,0-12.4s-11.4,18.2-13.5,18.2s0.2-14.6,0.2-14.6s-16.4,25.1-15.2,17.4
		c2.3-14.1-0.7-22.9-0.7-22.9s-15.3,17.1-15.3-2.6c0-16.6-5.1-21-16.3-39c-7.6-12.3,45.1,7.6,49.5,18
		C232,123.9,255.3,119.2,255.3,119.2z"/>
</g>
<g id="wing-right">
	<path id="_x30_7_2_" class="st20" d="M301.5,145.7c3.8-3.6-0.4,14.4-9.6,15.5c-9.2,1.1-15.2,0.1-14.8-0.3
		C284.6,146.3,294.4,152.3,301.5,145.7z"/>
	<path id="_x30_6_4_" class="st4" d="M300.7,148.4c2.6-3.8-2.1,12.2-10.2,13.1s-14.1-0.6-13.4-0.6
		C289.8,145.5,297.3,153.5,300.7,148.4z"/>
	<path id="_x30_5_4_" class="st0" d="M292.1,172.6c3,3.9-2.2,11.5-5.7,14.1c-2.5,12.8-14.1,10.7-13.9,16.1
		c-3.1-6.9,6.5-39.6,16.9-41.2c1.8-0.3,4.2-0.6,4.2-0.6S301.3,162.3,292.1,172.6z"/>
	<path id="_x30_4_6_" class="st20" d="M289,172.1c2.8,3.7-2,10.7-5.3,13.1c-1.1,6.9-8.7,14-12.3,10.9c-7.8-6.6-13.2-18.3-12.5-19.7
		c1-2.1,5.9,1.8,5.9,1.8s-9-9.5-7.3-14.8c0.7-2,6.8,2,6.8,2s-7.4-6.6-5.2-10c0.6-0.9,3,1.6,10.5,3.9c8.9,2.8,19,1.6,19,1.6
		S297.6,162.5,289,172.1z"/>
	<path id="_x30_3_7_" class="st4" d="M289,172.1c0,0-11.8-0.9-20.9-6.2c-9.2-5.3-9.6-9-8.3-9.8c1.1-0.7,7.7,3.5,12.4,4.6
		s13.6,0.7,17.3,1.6C296.7,164.2,289,172.1,289,172.1z"/>
	<path id="_x30_2_7_" class="st4" d="M283.8,185.2c0,0-9.5-3-15.9-9.5c-6.6-6.6-9-11.1-8.6-12.1c0.3-1,5.4,2.4,12.2,5.3
		c6.8,2.9,10.6,3,16.2,3.8S283.8,185.2,283.8,185.2z"/>
	<path id="_x30_1_7_" class="st4" d="M274.7,194.7c-4.4,0.6-15.7-18.2-14.9-18.8c0.8-0.6,6,3.1,12.5,6.6c6.5,3.6,11.2,4,11.2,4
		S280.4,193.9,274.7,194.7z"/>
</g>
<g id="wing-left1">
	<path id="_x31_3" class="st20" d="M155,201.4c0,0-12,11.8-38,13.9c-20.8,1.7-29-4.8-29.6-6.7c-1-3.1,7.1-4.1,7.1-4.1
		s-17.1-0.3-20.3-7.1c-1.2-2.6,8.2-4.9,8.2-4.9s-12.9,1-13.9-4.5c-0.3-1.5,4.3-1.5,13.4-6.6c10.8-6.1,19.3-17.3,19.3-17.3L155,201.4
		z"/>
	<path id="_x31_2" class="st4" d="M114.1,170.1c0,0-14.3,15.2-27.7,19.1s-17.1,0.8-16.6-1.3c0.4-1.8,10.4-4.3,15.7-7.8
		c5.3-3.6,16.4-15.6,16.4-15.6L114.1,170.1z"/>
	<path id="_x31_1_1_" class="st4" d="M126.2,186.4c0,0-19.6,9.8-31.7,11.5c-12.1,1.7-17.8-0.7-18.5-2c-0.6-1.3,7.3-3,16.2-6.9
		c9-4,21.1-14.4,21.1-14.4L126.2,186.4z"/>
	<path id="_x31_0_1_" class="st4" d="M140.5,203.8c0,0-13.5,6.6-30.6,8.3s-22.4-3.4-22.2-4.9c0.2-1.4,8.4-3,17.7-5.9
		s21.3-12.2,21.3-12.2L140.5,203.8z"/>
	<path id="_x30_9_1_" class="st0" d="M175.2,169.9c0,0-7.9,32.2-35.8,39.9c-5,1.4-14.7-0.2-18.3-4.2c-3.8-4.3-2.7-11-2.7-11
		s-3.9,0.2-9.4-4c-4.9-3.8-1.9-12.2-1.9-12.2l0,0c-1.6,0.2-6.1,0.6-9-2.1c-3.6-3.3,0.9-9.1,0.9-9.1s11.8-17.2,17-29.3
		c5.2-12.1,11.7-18.7,11.7-18.7l16.1,13.1c0,0-10.5,14.3-16.9,24.3L175.2,169.9z"/>
	<path id="_x30_8_1_" class="st4" d="M143.9,131.7c0,0-12.1,16.4-17.6,25.6C120.7,166.6,110,175,110,175s-5.6,1.2-9-1.9
		c-3.4-3.1,0.9-8.6,0.9-8.6s11.1-16.1,15.9-27.5s11-17.6,11-17.6L143.9,131.7z"/>
	<path id="_x30_7_1_" class="st4" d="M150.6,158.6c0,0-4.8,10.8-13.8,21s-13.3,11.1-13.3,11.1s-5.9,0.1-11.3-3.2
		c-5.5-3.3-2.9-9.2-2.6-9.9c13.7-12.2,21-27.9,21-27.9L150.6,158.6z"/>
	<path id="_x30_6_2_" class="st4" d="M175.2,169.9c0,0-3.1,16.9-16.4,28.6s-26.7,9-32.7,5.1c-6-3.9-2-10.6-1.4-11.7
		c11.3-5,21.7-27.9,21.7-27.9L175.2,169.9z"/>
	<path id="_x30_5_2_" class="st19" d="M161.2,185.8c-6.5-1.2-6.2-8.1-6.2-8.1s-2.3,4.3-7.3,3.3c-9.6-2-4.2-17.4-4.2-17.4
		s-7.8,6.7-13.7,0.5c-9.7-10.1,7.5-25.1,7.5-25.1s-9.3,4.7-11.9-2.2c-7.9-20.5,18.2-32.6,29.9-28.3
		C190.6,121.7,179,189.1,161.2,185.8z"/>
	<path id="_x30_4_4_" class="st0" d="M177.3,161.8c-2.3,14.3-8.7,25.4-16.1,24c-6.5-1.2-6.2-8.1-6.2-8.1s-2.3,4.3-7.3,3.3
		c-9.6-2-4.2-17.4-4.2-17.4s-7.8,6.7-13.7,0.5c-9.7-10.1,7.5-25.1,7.5-25.1s-8.4,5.3-13.2-1.1c-11.2-14.9,17.3-32.6,29.5-29.8
		c-12.1-1.7-35.8,14.2-25.9,27c4.2,5.4,11.5,2.1,11.5,2.1s-16.5,14-7.1,23.5c5.7,5.8,13.2-0.4,13.2-0.4s-5.1,14.5,4.1,16.4
		c4.8,1,7-3.1,7-3.1s-0.2,6.4,6,7.6C169.1,182.5,174.8,173.7,177.3,161.8z"/>
	<path id="_x30_3_5_" class="st4" d="M174.1,175.2c-7.8,20.8-14.6-10.8-14.6-10.8s-1.4,3.8-4.4,2.8c-9.6-3.3,3.1-22.5,3.1-22.5
		s-5.8,5.9-11.5,2.3c-9.8-6.2,8.5-22.2,8.5-22.2s-9.7,4.2-14.9-2.6c-4-5.2,1-18.5,13.3-14C179.3,117.8,181.8,154.6,174.1,175.2z"/>
	<path id="_x30_2_5_" class="st20" d="M174.8,172.2c-7.4,19.8-13.9-10.3-13.9-10.3s-1.3,3.6-4.2,2.6c-9.1-3.1,2.9-21.4,2.9-21.4
		s-5.5,5.6-10.9,2.2c-9.3-5.9,8.1-21.1,8.1-21.1s-9.2,4-14.2-2.4c-3.8-4.9,1-17.6,12.6-13.3C179.6,117.6,182,152.6,174.8,172.2z"/>
	<path id="_x30_1_5_" class="st0" d="M160,113.2c12.9,6,15.2,32.8,15.2,32.8s-2.9-9.6-10.4-21.9c-7.5-12.2-17.8-9.4-17.8-12.5
		C147,111.6,147.1,107.2,160,113.2z"/>
</g>
</svg>
