<?xml version="1.0" encoding="utf-8"?>
<!-- Generator: Adobe Illustrator 24.0.0, SVG Export Plug-In . SVG Version: 6.00 Build 0)  -->
<svg version="1.1" id="eraser" xmlns="http://www.w3.org/2000/svg" xmlns:xlink="http://www.w3.org/1999/xlink" x="0px" y="0px"
	 viewBox="0 0 34.1 56.5" style="enable-background:new 0 0 34.1 56.5;" xml:space="preserve">
<style type="text/css">
	.st0{fill:#DBD7BD;}
	.st1{fill:#EDEBDD;}
	.st2{fill:#F6F5EE;}
	.st3{fill:#00B4EC;}
	.st4{fill:#89D2F6;}
	.st5{fill:#71CBF4;}
	.st6{fill:#C6C6C6;}
	.st7{fill:#ACACAC;}
	.st8{opacity:0.3;fill:#FFFFFF;}
</style>
<path id="eraser3" class="st0" d="M33.3,29.3v16.4c0,5.9-4.8,10.8-10.8,10.8h-11c-5.9,0-10.8-4.8-10.8-10.8V29.3H33.3z"/>
<path id="eraser2" class="st1" d="M28.4,29.3V45c0,5.7-4.1,10.3-9.1,10.3H9.9c-5,0-9.1-4.6-9.1-10.3V29.3H28.4z"/>
<path id="eraser1" class="st2" d="M22.7,29.3V44c0,5.3-3.2,9.6-7.3,9.6H8c-4,0-7.3-4.3-7.3-9.6V29.3H22.7z"/>
<path id="pencil3" class="st3" d="M34.1,19.4H22.7V0h11.4V19.4z"/>
<path id="pencil2" class="st4" d="M11.4,19.4H0V0h11.4V19.4z"/>
<path id="pencil1" class="st5" d="M22.7,19.4H11.4V0h11.4V19.4z"/>
<path id="oundation1" class="st6" d="M34.1,34.1H0V19.4h34.1V34.1z"/>
<path id="oundation2" class="st7" d="M34.1,29.3H0v-5.2h34.1V29.3z"/>
<path id="light" class="st8" d="M8.4,34.6H3.7V0.2h4.7V34.6z"/>
</svg>
