<?xml version="1.0" encoding="utf-8"?>
<!-- Generator: Adobe Illustrator 24.0.0, SVG Export Plug-In . SVG Version: 6.00 Build 0)  -->
<svg version="1.1" id="pencils" xmlns="http://www.w3.org/2000/svg" xmlns:xlink="http://www.w3.org/1999/xlink" x="0px" y="0px"
	 viewBox="0 0 33.8 113.2" style="enable-background:new 0 0 33.8 113.2;" xml:space="preserve">
<style type="text/css">
	.st0{fill:#F4DC8F;}
	.st1{fill:#E5C67A;}
	.st2{fill:#006600;}
	.st3{fill:#0E4C22;}
	.st4{fill:#093F1C;}
	.st5{fill:#145B2C;}
	.st6{fill:#277831;}
	.st7{fill:#E4E5E6;}
</style>
<path id="_x31_0_4_" class="st0" d="M0,26.6L14.4,1.2c0.9-1.6,3.2-1.6,4.1,0l15.3,27v81.3H0.1L0,26.6L0,26.6z"/>
<path id="_x30_9_4_" class="st1" d="M15.3,8.3l-0.9,26.2H0v-7.8L14.4,1.3c0.2-0.4,0.5-0.7,0.9-0.9C15.3,0.4,15.3,8.3,15.3,8.3z"/>
<path id="_x30_8_4_" class="st2" d="M16.3,8.3c-4.8,0-5.6-0.6-5.6-0.6l3.7-6.5c0.9-1.6,3.2-1.6,4.1,0l3.4,6
	C21.9,7.2,21.2,8.3,16.3,8.3z"/>
<path id="_x30_7_4_" class="st3" d="M15.3,8.3c-3.9-0.1-4.6-0.6-4.6-0.6l3.7-6.5c0.2-0.4,0.6-0.7,1-0.9v8H15.3z"/>
<path id="_x30_6_4_" class="st3" d="M16.9,113.1l-12.6-1V30.4c0,0,3.8-1.6,6.3-1.6s6.3,1.6,6.3,1.6V113.1L16.9,113.1z"/>
<path id="_x30_5_4_" class="st4" d="M2.8,111.9c0,0-0.8-0.2-1.4-0.4S0,110.8,0,110.8V26.6c0,0,1.1,0.4,1.8,1.4s1,2.4,1,2.4V111.9z"
	/>
<path id="_x30_4_4_" class="st5" d="M4.3,112.1l-1.5-0.2V30.4h1.5V112.1z"/>
<path id="_x30_3_4_" class="st2" d="M33.7,28.2v54.1v9.2v18.3c0,0-3.4,2.1-7.6,2.8c-4.5,0.7-7.6,0.6-7.6,0.6V91.4v-9.2v-51
	c0,0,4.4-1.8,8.2-2.6C30.8,27.6,33.7,28.2,33.7,28.2z"/>
<path id="_x30_2_4_" class="st6" d="M18.5,113.1h-1.6V30.4l1.6,0.7V113.1z"/>
<path id="_x30_1_4_" class="st7" d="M33.7,94c0,0-7.6,0.8-17.2,0.8C7.9,94.8,0,94,0,94v-2.8c0,0,9.3,0.5,15.8,0.5s17.9-0.5,17.9-0.5
	V94L33.7,94z"/>
</svg>
